<?xml version="1.0" encoding="UTF-8" standalone="no"?>
<!-- Created with Inkscape (http://www.inkscape.org/) -->

<svg
   xmlns:dc="http://purl.org/dc/elements/1.1/"
   xmlns:cc="http://creativecommons.org/ns#"
   xmlns:rdf="http://www.w3.org/1999/02/22-rdf-syntax-ns#"
   xmlns:svg="http://www.w3.org/2000/svg"
   xmlns="http://www.w3.org/2000/svg"
   xmlns:xlink="http://www.w3.org/1999/xlink"
   xmlns:sodipodi="http://sodipodi.sourceforge.net/DTD/sodipodi-0.dtd"
   xmlns:inkscape="http://www.inkscape.org/namespaces/inkscape"
   width="1024"
   height="1024"
   id="svg2"
   version="1.1"
   inkscape:version="0.48.5 r10040"
   sodipodi:docname="shine.svg">
  <defs
     id="defs4">
    <linearGradient
       id="linearGradient3766">
      <stop
         style="stop-color:#ffffff;stop-opacity:1;"
         offset="0"
         id="stop3768" />
      <stop
         style="stop-color:#ffffff;stop-opacity:0;"
         offset="1"
         id="stop3770" />
    </linearGradient>
    <linearGradient
       id="linearGradient3924">
      <stop
         style="stop-color:#feef00;stop-opacity:1;"
         offset="0"
         id="stop3926" />
      <stop
         id="stop3932"
         offset="0.5"
         style="stop-color:#fed100;stop-opacity:0.75294119;" />
      <stop
         style="stop-color:#feb300;stop-opacity:0;"
         offset="1"
         id="stop3928" />
    </linearGradient>
    <radialGradient
       inkscape:collect="always"
       xlink:href="#linearGradient3924"
       id="radialGradient3930"
       cx="512"
       cy="512"
       fx="512"
       fy="512"
       r="512"
       gradientUnits="userSpaceOnUse" />
    <radialGradient
       inkscape:collect="always"
       xlink:href="#linearGradient3766"
       id="radialGradient3772"
       cx="72.212593"
       cy="146.93253"
       fx="72.212593"
       fy="146.93253"
       r="38.56012"
       gradientTransform="matrix(1,0,0,1.6909092,0,-101.51703)"
       gradientUnits="userSpaceOnUse" />
    <radialGradient
       inkscape:collect="always"
       xlink:href="#linearGradient3924"
       id="radialGradient3779"
       gradientUnits="userSpaceOnUse"
       cx="512"
       cy="512"
       fx="512"
       fy="512"
       r="512"
       gradientTransform="translate(0,28.362183)" />
    <radialGradient
       inkscape:collect="always"
       xlink:href="#linearGradient3924-6"
       id="radialGradient3779-4"
       gradientUnits="userSpaceOnUse"
       cx="512"
       cy="512"
       fx="512"
       fy="512"
       r="512"
       gradientTransform="translate(0,28.362183)" />
    <linearGradient
       id="linearGradient3924-6">
      <stop
         style="stop-color:#feef00;stop-opacity:1;"
         offset="0"
         id="stop3926-9" />
      <stop
         id="stop3932-2"
         offset="0.5"
         style="stop-color:#fed100;stop-opacity:0.75294119;" />
      <stop
         style="stop-color:#feb300;stop-opacity:0;"
         offset="1"
         id="stop3928-5" />
    </linearGradient>
    <radialGradient
       r="512"
       fy="512"
       fx="512"
       cy="512"
       cx="512"
       gradientTransform="matrix(-0.87404351,0,0,-0.87404297,959.02019,988.36218)"
       gradientUnits="userSpaceOnUse"
       id="radialGradient3797"
       xlink:href="#linearGradient3924-6"
       inkscape:collect="always" />
  </defs>
  <sodipodi:namedview
     id="base"
     pagecolor="#ffffff"
     bordercolor="#666666"
     borderopacity="1.0"
     inkscape:pageopacity="0.0"
     inkscape:pageshadow="2"
     inkscape:zoom="0.74023436"
     inkscape:cx="512.00005"
     inkscape:cy="511.99999"
     inkscape:document-units="px"
     inkscape:current-layer="layer1"
     showgrid="false"
     inkscape:window-width="1280"
     inkscape:window-height="973"
     inkscape:window-x="0"
     inkscape:window-y="0"
     inkscape:window-maximized="1" />
  <metadata
     id="metadata7">
    <rdf:RDF>
      <cc:Work
         rdf:about="">
        <dc:format>image/svg+xml</dc:format>
        <dc:type
           rdf:resource="http://purl.org/dc/dcmitype/StillImage" />
        <dc:title></dc:title>
      </cc:Work>
    </rdf:RDF>
  </metadata>
  <g
     inkscape:label="Layer 1"
     inkscape:groupmode="layer"
     id="layer1"
     transform="translate(0,-28.362183)">
    <path
       sodipodi:type="arc"
       style="fill:url(#radialGradient3772);fill-opacity:1;stroke:none"
       id="path3764"
       sodipodi:cx="72.212593"
       sodipodi:cy="146.93253"
       sodipodi:rx="38.56012"
       sodipodi:ry="65.20166"
       d="m 110.77271,146.93253 a 38.56012,65.20166 0 1 1 -77.120237,0 38.56012,65.20166 0 1 1 77.120237,0 z"
       transform="matrix(11.618221,0,0,6.8709908,-326.9819,-469.20987)" />
    <path
       style="fill:url(#radialGradient3779);fill-opacity:1;stroke:none"
       d="m 512,28.362183 0,479.999997 c 1.89994,0 3.75355,0.18249 5.5625,0.5 L 600.90625,36.143433 C 571.55318,30.967699 541.80589,28.362184 512,28.362183 z M 256,96.955933 C 230.18736,111.85887 205.73887,128.98459 182.90625,148.14343 L 491.4375,515.86218 c 1.424,-1.19657 2.943,-2.28185 4.5625,-3.21875 z M 841.09375,148.14343 532.5625,515.86218 c 1.4281,1.20002 2.76961,2.50864 3.96875,3.9375 l 367.6875,-308.53125 c -19.15884,-22.83262 -40.29238,-43.96616 -63.125,-63.125 z M 30.875,365.23718 C 20.680794,393.24553 12.956985,422.10288 7.78125,451.45593 L 480.5,534.79968 c 0.32445,-1.84844 0.77908,-3.65037 1.40625,-5.375 z m 985.3438,87.625 -472.50005,83.3125 c 0.17895,1.36984 0.28125,2.76886 0.28125,4.1875 0,0.46895 -0.0113,0.94222 -0.0312,1.40625 l 480.0313,0 c 0,-29.80587 -2.6057,-59.5532 -7.7812,-88.90625 z M 481.90625,551.29968 30.875,715.48718 c 10.194206,28.00835 22.815818,55.06236 37.71875,80.875 l 415.6875,-240 c -0.92851,-1.60501 -1.73291,-3.29685 -2.375,-5.0625 z m 58.40625,3.96875 c -0.90557,1.71677 -1.96543,3.32941 -3.15625,4.84375 l 367.0625,307.96875 c 19.15884,-22.83262 36.28457,-47.31236 51.1875,-73.125 z M 496,568.08093 256,983.76843 c 25.81264,14.90293 52.86665,27.52457 80.875,37.71877 L 501.0625,570.45593 c -1.76565,-0.64209 -3.45749,-1.44649 -5.0625,-2.375 z m 26.9375,2.375 c -1.72463,0.62717 -3.52656,1.0818 -5.375,1.40625 l 83.34375,472.71882 c 29.35307,-5.1758 58.21038,-12.8996 86.21875,-23.0938 z"
       id="path2991"
       inkscape:connector-curvature="0"
       sodipodi:nodetypes="ccccccccccccccccccccccscccccccccccccccccccccccc" />
    <path
       style="fill:url(#radialGradient3797);fill-opacity:1;stroke:none"
       d="m 511.51015,988.36218 0,-419.54072 c -1.66067,0 -3.28074,-0.15949 -4.86187,-0.43701 l -72.84603,413.17653 c 25.65585,4.5239 51.65626,6.8012 77.7079,6.8012 z m 223.75503,-59.95399 c 22.56136,-13.02578 43.93039,-27.9944 63.88708,-44.74005 L 529.48266,562.26615 c -1.24467,1.04585 -2.57235,1.99443 -3.98782,2.81332 z M 223.86803,883.66814 493.53764,562.26615 c -1.24824,-1.04888 -2.42077,-2.19266 -3.46883,-3.44155 L 168.69406,828.49418 c 16.74565,19.95669 35.21728,38.42831 55.17397,55.17396 z M 932.03412,693.91887 c 8.91016,-24.4805 15.6611,-49.70307 20.18488,-75.35889 L 539.0425,545.71396 c -0.28335,1.61561 -0.68057,3.19058 -1.22912,4.69798 z M 70.801192,617.33085 483.7866,544.51215 c -0.15645,-1.19729 -0.24598,-2.42011 -0.24598,-3.66006 0,-0.40988 0.01,-0.82354 0.0273,-1.22912 l -419.56792,0 c 0,26.05161 2.277408,52.05205 6.801103,77.70788 z M 537.81338,531.29225 932.03412,387.78532 c -8.91017,-24.48051 -19.942,-48.12687 -32.96781,-70.68823 L 535.73752,526.86741 c 0.81182,1.40284 1.51464,2.88158 2.07587,4.42484 z m -51.04957,-3.46886 c 0.79182,-1.50053 1.71785,-2.91005 2.7587,-4.23364 L 168.69406,254.41182 c -16.74564,19.95669 -31.71427,41.35304 -44.7401,63.91439 z M 525.49483,516.62472 735.26518,153.29597 C 712.70382,140.27018 689.05744,129.23832 664.57694,120.32815 L 521.06999,514.54886 c 1.54324,0.56122 3.02199,1.2643 4.42484,2.07586 z m -23.54454,-2.07586 c 1.50743,-0.54818 3.0824,-0.94554 4.69795,-1.22912 L 433.80225,100.14318 c -25.65584,4.52387 -50.87837,11.2748 -75.35889,20.18497 z"
       id="path2991-7"
       inkscape:connector-curvature="0"
       sodipodi:nodetypes="ccccccccccccccccccccccscccccccccccccccccccccccc" />
  </g>
</svg>
